<svg width="19" height="12" viewBox="0 0 19 12" fill="none" xmlns="http://www.w3.org/2000/svg">
<path id="Vector" d="M6.70687 11.5646C6.51934 11.7521 6.26503 11.8574 5.99987 11.8574C5.7347 11.8574 5.48039 11.7521 5.29287 11.5646L0.792865 7.06464C0.605394 6.87711 0.500078 6.6228 0.500078 6.35764C0.500078 6.09247 0.605394 5.83816 0.792865 5.65064L5.29287 1.15064C5.48147 0.968478 5.73407 0.867685 5.99627 0.869963C6.25846 0.872241 6.50927 0.97741 6.69468 1.16282C6.88009 1.34823 6.98526 1.59904 6.98754 1.86124C6.98982 2.12343 6.88902 2.37603 6.70686 2.56464L3.99987 5.35764L17.4998 5.35764C17.765 5.35764 18.0193 5.46299 18.2069 5.65053C18.3944 5.83807 18.4998 6.09242 18.4998 6.35764C18.4998 6.62285 18.3944 6.87721 18.2069 7.06474C18.0193 7.25228 17.765 7.35764 17.4998 7.35764L3.99987 7.35764L6.70687 10.1506C6.89434 10.3382 6.99965 10.5925 6.99965 10.8576C6.99965 11.1228 6.89434 11.3771 6.70687 11.5646Z" fill="#868686"/>
</svg>
