<svg width="39" height="39" viewBox="0 0 39 39" fill="none" xmlns="http://www.w3.org/2000/svg">
<g id="&#208;&#191;&#208;&#187;&#208;&#190;&#209;&#137;&#208;&#176;&#208;&#180;&#209;&#140;">
<path id="Vector" d="M19.5 3.25C13.2113 3.25 8.125 8.33625 8.125 14.625C8.125 23.1562 19.5 35.75 19.5 35.75C19.5 35.75 30.875 23.1562 30.875 14.625C30.875 8.33625 25.7887 3.25 19.5 3.25ZM19.5 18.6875C18.4226 18.6875 17.3892 18.2595 16.6274 17.4976C15.8655 16.7358 15.4375 15.7024 15.4375 14.625C15.4375 13.5476 15.8655 12.5142 16.6274 11.7524C17.3892 10.9905 18.4226 10.5625 19.5 10.5625C20.5774 10.5625 21.6108 10.9905 22.3726 11.7524C23.1345 12.5142 23.5625 13.5476 23.5625 14.625C23.5625 15.7024 23.1345 16.7358 22.3726 17.4976C21.6108 18.2595 20.5774 18.6875 19.5 18.6875Z" fill="#1400A6"/>
</g>
</svg>
