<svg width="54" height="55" viewBox="0 0 54 55" fill="none" xmlns="http://www.w3.org/2000/svg">
<g id="tabler:video">
<path id="Vector" d="M33.75 23.0195L43.9942 17.8985C44.3372 17.7272 44.7182 17.6463 45.1012 17.6635C45.4842 17.6808 45.8565 17.7956 46.1826 17.9971C46.5088 18.1986 46.778 18.4801 46.9648 18.8149C47.1516 19.1497 47.2498 19.5267 47.25 19.91V35.129C47.2498 35.5124 47.1516 35.8894 46.9648 36.2242C46.778 36.559 46.5088 36.8405 46.1826 37.042C45.8565 37.2435 45.4842 37.3583 45.1012 37.3756C44.7182 37.3928 44.3372 37.3119 43.9942 37.1405L33.75 32.0195V23.0195ZM6.75 18.5195C6.75 17.3261 7.22411 16.1815 8.06802 15.3376C8.91193 14.4936 10.0565 14.0195 11.25 14.0195H29.25C30.4435 14.0195 31.5881 14.4936 32.432 15.3376C33.2759 16.1815 33.75 17.3261 33.75 18.5195V36.5195C33.75 37.713 33.2759 38.8576 32.432 39.7015C31.5881 40.5454 30.4435 41.0195 29.25 41.0195H11.25C10.0565 41.0195 8.91193 40.5454 8.06802 39.7015C7.22411 38.8576 6.75 37.713 6.75 36.5195V18.5195Z" stroke="#1400A6" stroke-width="4.5" stroke-linecap="round" stroke-linejoin="round"/>
</g>
</svg>
