<svg width="51" height="51" viewBox="0 0 51 51" fill="none" xmlns="http://www.w3.org/2000/svg">
<g id="material-symbols:travel">
<path id="Vector" d="M14.5557 36.4435L7.75571 32.7247L9.98696 30.4935L15.2995 31.2372L23.587 22.9497L7.01196 13.9185L9.98696 10.9435L30.2807 16.1497L38.6213 7.91533C39.2234 7.31325 39.9764 7.01221 40.8802 7.01221C41.784 7.01221 42.5363 7.31325 43.137 7.91533C43.739 8.51742 44.0401 9.27037 44.0401 10.1742C44.0401 11.078 43.739 11.8303 43.137 12.431L34.8495 20.7185L40.0557 41.0122L37.0807 43.9872L28.0495 27.4122L19.762 35.6997L20.5057 41.0122L18.2745 43.2435L14.5557 36.4435Z" fill="#1400A6"/>
</g>
</svg>
