<svg width="50" height="50" viewBox="0 0 50 50" fill="none" xmlns="http://www.w3.org/2000/svg">
<g id="material-symbols:tv-outline">
<path id="Vector" d="M16.6668 43.75V39.5833H8.33342C7.18759 39.5833 6.20633 39.175 5.38967 38.3583C4.573 37.5417 4.16536 36.5611 4.16675 35.4167V10.4167C4.16675 9.27084 4.57509 8.28959 5.39175 7.47292C6.20842 6.65625 7.18897 6.24861 8.33342 6.25H41.6668C42.8126 6.25 43.7938 6.65834 44.6105 7.475C45.4272 8.29167 45.8348 9.27223 45.8334 10.4167V35.4167C45.8334 36.5625 45.4251 37.5438 44.6084 38.3604C43.7918 39.1771 42.8112 39.5847 41.6668 39.5833H33.3334V43.75H16.6668ZM8.33342 35.4167H41.6668V10.4167H8.33342V35.4167Z" fill="#1400A6"/>
</g>
</svg>
