<svg width="48" height="48" viewBox="0 0 48 48" fill="none" xmlns="http://www.w3.org/2000/svg">
<g id="material-symbols:video-library-rounded">
<path id="Vector" d="M35.0505 21.2505C35.5172 20.9505 35.7505 20.5338 35.7505 20.0005C35.7505 19.4672 35.5172 19.0505 35.0505 18.7505L25.3005 12.5005C24.8005 12.1672 24.2918 12.1418 23.7745 12.4245C23.2572 12.7072 22.9992 13.1492 23.0005 13.7505V26.2505C23.0005 26.8505 23.2592 27.2925 23.7765 27.5765C24.2938 27.8605 24.8018 27.8352 25.3005 27.5005L35.0505 21.2505ZM16.0005 36.0005C14.9005 36.0005 13.9585 35.6085 13.1745 34.8245C12.3905 34.0405 11.9992 33.0992 12.0005 32.0005V8.00049C12.0005 6.90049 12.3925 5.95849 13.1765 5.17449C13.9605 4.39049 14.9018 3.99916 16.0005 4.00049H40.0005C41.1005 4.00049 42.0425 4.39249 42.8265 5.17649C43.6105 5.96049 44.0018 6.90182 44.0005 8.00049V32.0005C44.0005 33.1005 43.6085 34.0425 42.8245 34.8265C42.0405 35.6105 41.0992 36.0018 40.0005 36.0005H16.0005ZM8.00049 44.0005C6.90049 44.0005 5.95849 43.6085 5.17449 42.8245C4.39049 42.0405 3.99916 41.0992 4.00049 40.0005V14.0005C4.00049 13.4338 4.19249 12.9585 4.57649 12.5745C4.96049 12.1905 5.43516 11.9992 6.00049 12.0005C6.56716 12.0005 7.04249 12.1925 7.42649 12.5765C7.81049 12.9605 8.00182 13.4352 8.00049 14.0005V40.0005H34.0005C34.5672 40.0005 35.0425 40.1925 35.4265 40.5765C35.8105 40.9605 36.0018 41.4352 36.0005 42.0005C36.0005 42.5672 35.8085 43.0425 35.4245 43.4265C35.0405 43.8105 34.5658 44.0018 34.0005 44.0005H8.00049Z" fill="#1400A6"/>
</g>
</svg>
