<svg width="52" height="52" viewBox="0 0 52 52" fill="none" xmlns="http://www.w3.org/2000/svg">
<g id="material-symbols:wallpaper">
<path id="Vector" d="M10.8 45.36C9.61198 45.36 8.59462 44.9366 7.7479 44.0899C6.90118 43.2432 6.47854 42.2265 6.47998 41.04V28.08H10.8V41.04H23.76V45.36H10.8ZM28.08 45.36V41.04H41.04V28.08H45.36V41.04C45.36 42.228 44.9366 43.2453 44.0899 44.0921C43.2432 44.9388 42.2265 45.3614 41.04 45.36H28.08ZM12.96 36.72L19.44 28.08L24.3 34.56L30.78 25.92L38.88 36.72H12.96ZM6.47998 23.76V10.8C6.47998 9.61198 6.90334 8.59462 7.75006 7.7479C8.59678 6.90118 9.61342 6.47854 10.8 6.47998H23.76V10.8H10.8V23.76H6.47998ZM41.04 23.76V10.8H28.08V6.47998H41.04C42.228 6.47998 43.2453 6.90334 44.0921 7.75006C44.9388 8.59678 45.3614 9.61342 45.36 10.8V23.76H41.04ZM33.48 21.6C32.544 21.6 31.77 21.294 31.158 20.682C30.546 20.07 30.24 19.296 30.24 18.36C30.24 17.424 30.546 16.65 31.158 16.038C31.77 15.426 32.544 15.12 33.48 15.12C34.416 15.12 35.19 15.426 35.802 16.038C36.414 16.65 36.72 17.424 36.72 18.36C36.72 19.296 36.414 20.07 35.802 20.682C35.19 21.294 34.416 21.6 33.48 21.6Z" fill="#1400A6"/>
</g>
</svg>
