<svg width="52" height="53" viewBox="0 0 52 53" fill="none" xmlns="http://www.w3.org/2000/svg">
<g id="material-symbols:width-rounded">
<path id="Vector" d="M14.7417 28.759L16.6318 30.757C17.0278 31.153 17.2257 31.6483 17.2257 32.243C17.2257 32.8378 17.0278 33.3324 16.6318 33.727C16.1997 34.159 15.6864 34.375 15.0917 34.375C14.497 34.375 14.0023 34.159 13.6078 33.727L7.99175 28.165C7.77575 27.949 7.61375 27.7063 7.50575 27.437C7.39775 27.1678 7.34375 26.8884 7.34375 26.599C7.34375 26.311 7.39775 26.041 7.50575 25.789C7.61375 25.537 7.77575 25.303 7.99175 25.087L13.6078 19.471C14.0038 19.075 14.4991 18.877 15.0938 18.877C15.6885 18.877 16.2012 19.075 16.6318 19.471C17.0637 19.903 17.2797 20.4163 17.2797 21.011C17.2797 21.6058 17.0637 22.1184 16.6318 22.549L14.7417 24.439H37.0977L35.1538 22.495C34.7578 22.099 34.5598 21.6036 34.5598 21.0089C34.5598 20.4142 34.7758 19.9015 35.2078 19.471C35.6038 19.075 36.0991 18.877 36.6938 18.877C37.2886 18.877 37.8012 19.075 38.2318 19.471L43.7938 25.087C44.0098 25.303 44.1718 25.537 44.2798 25.789C44.3878 26.041 44.4418 26.311 44.4418 26.599C44.4418 26.887 44.3878 27.1656 44.2798 27.4349C44.1718 27.7042 44.0098 27.9475 43.7938 28.165L38.1777 33.781C37.7817 34.177 37.2864 34.375 36.6917 34.375C36.097 34.375 35.5843 34.159 35.1538 33.727C34.7578 33.331 34.5598 32.8356 34.5598 32.2409C34.5598 31.6462 34.7578 31.1515 35.1538 30.757L37.0977 28.759H14.7417Z" fill="#1400A6"/>
</g>
</svg>
