<svg width="52" height="53" viewBox="0 0 52 53" fill="none" xmlns="http://www.w3.org/2000/svg">
<g id="material-symbols:wifi-tethering-rounded">
<path id="Vector" d="M25.9201 33.2398C24.7321 33.2398 23.7147 32.8165 22.868 31.9697C22.0213 31.123 21.5986 30.1064 21.6001 28.9198C21.6001 27.7318 22.0234 26.7145 22.8701 25.8677C23.7169 25.021 24.7335 24.5984 25.9201 24.5998C27.1081 24.5998 28.1254 25.0232 28.9721 25.8699C29.8189 26.7166 30.2415 27.7333 30.2401 28.9198C30.2401 30.1078 29.8167 31.1252 28.97 31.9719C28.1233 32.8186 27.1066 33.2413 25.9201 33.2398ZM15.6601 36.8578C14.8321 35.7418 14.1747 34.5178 13.688 33.1858C13.2013 31.8538 12.9586 30.4318 12.9601 28.9198C12.9601 25.3198 14.2201 22.2598 16.7401 19.7398C19.2601 17.2198 22.3201 15.9598 25.9201 15.9598C29.5201 15.9598 32.5801 17.2198 35.1001 19.7398C37.6201 22.2598 38.8801 25.3198 38.8801 28.9198C38.8801 30.4318 38.6367 31.8718 38.15 33.2398C37.6633 34.6078 37.0066 35.8318 36.1801 36.9118C35.8201 37.3798 35.3427 37.6138 34.748 37.6138C34.1533 37.6138 33.6226 37.3798 33.1561 36.9118C32.7601 36.5158 32.5534 36.0298 32.5361 35.4538C32.5189 34.8778 32.6895 34.3198 33.0481 33.7798C33.5521 33.0598 33.9301 32.2945 34.1821 31.4837C34.4341 30.673 34.5601 29.8184 34.5601 28.9198C34.5601 26.5438 33.7141 24.5098 32.0221 22.8178C30.3301 21.1258 28.2961 20.2798 25.9201 20.2798C23.5441 20.2798 21.5101 21.1258 19.8181 22.8178C18.1261 24.5098 17.2801 26.5438 17.2801 28.9198C17.2801 29.8558 17.4154 30.7198 17.6861 31.5118C17.9569 32.3038 18.3255 33.0598 18.7921 33.7798C19.1521 34.3198 19.3141 34.8865 19.2781 35.4797C19.2421 36.073 19.0261 36.5684 18.6301 36.9658C18.1981 37.3978 17.6847 37.6052 17.09 37.5879C16.4953 37.5706 16.0186 37.3273 15.6601 36.8578ZM9.55807 43.0138C7.93807 41.1058 6.66007 38.9552 5.72407 36.5619C4.78807 34.1686 4.32007 31.6213 4.32007 28.9198C4.32007 25.9318 4.88743 23.1238 6.02215 20.4958C7.15687 17.8678 8.69551 15.5818 10.6381 13.6378C12.5821 11.6938 14.8681 10.1552 17.4961 9.0219C20.1241 7.88862 22.9321 7.32126 25.9201 7.31982C28.9081 7.31982 31.7161 7.88718 34.3441 9.0219C36.9721 10.1566 39.2581 11.6953 41.2021 13.6378C43.1461 15.5818 44.6854 17.8678 45.8201 20.4958C46.9549 23.1238 47.5215 25.9318 47.5201 28.9198C47.5201 31.6198 47.0521 34.1758 46.1161 36.5878C45.1801 38.9998 43.9021 41.1598 42.2821 43.0678C41.8861 43.4998 41.4001 43.7158 40.8241 43.7158C40.2481 43.7158 39.7441 43.4998 39.3121 43.0678C38.9161 42.6718 38.7094 42.1765 38.6922 41.5817C38.6749 40.987 38.8635 40.4564 39.2581 39.9898C40.4821 38.4778 41.4454 36.7858 42.1482 34.9138C42.8509 33.0418 43.2015 31.0438 43.2001 28.9198C43.2001 24.0958 41.5261 20.0098 38.1781 16.6618C34.8301 13.3138 30.7441 11.6398 25.9201 11.6398C21.0961 11.6398 17.0101 13.3138 13.6621 16.6618C10.3141 20.0098 8.64007 24.0958 8.64007 28.9198C8.64007 31.0438 8.99071 33.0332 9.69199 34.8879C10.3933 36.7426 11.3746 38.4253 12.6361 39.9358C13.0321 40.4038 13.2214 40.9352 13.2041 41.5299C13.1869 42.1246 12.9615 42.6373 12.5281 43.0678C12.0961 43.4998 11.5921 43.7072 11.0161 43.6899C10.4401 43.6726 9.95407 43.4473 9.55807 43.0138Z" fill="#1400A6"/>
</g>
</svg>
