<?xml version="1.0" standalone="no"?>
<!DOCTYPE svg PUBLIC "-//W3C//DTD SVG 20010904//EN"
 "http://www.w3.org/TR/2001/REC-SVG-20010904/DTD/svg10.dtd">
<svg version="1.0" xmlns="http://www.w3.org/2000/svg"
 width="93.000000pt" height="93.000000pt" viewBox="0 0 93.000000 93.000000"
 preserveAspectRatio="xMidYMid meet">
<metadata>
Created by potrace 1.14, written by Peter Selinger 2001-2017
</metadata>
<g transform="translate(0.000000,93.000000) scale(0.100000,-0.100000)"
fill="#000000" stroke="none">
<path d="M460 600 c-58 -33 -113 -59 -122 -60 -9 0 -44 16 -77 36 -33 20 -68
34 -78 32 -26 -5 -30 -62 -6 -80 10 -7 24 -23 31 -36 14 -25 8 -29 -117 -97
-62 -33 -68 -49 -30 -72 25 -15 29 -14 130 42 57 31 110 62 117 67 9 8 38 -2
105 -35 149 -73 148 -67 34 -123 -97 -49 -97 -49 -75 -66 34 -26 49 -23 159
33 56 27 104 47 108 43 3 -4 2 -8 -4 -11 -22 -8 -39 -22 -34 -28 3 -3 23 2 43
10 20 9 41 13 46 10 6 -4 10 0 10 7 0 8 16 20 35 27 19 7 35 17 35 22 0 12
-10 11 -40 -6 -30 -17 -40 -18 -40 -5 0 6 52 36 115 67 63 32 115 62 115 67 0
12 -32 35 -49 36 -7 0 -45 -16 -82 -35 -38 -19 -71 -35 -74 -35 -3 0 -5 12 -5
26 0 24 -23 53 -42 54 -5 0 -8 -24 -8 -54 0 -40 -4 -55 -16 -60 -27 -10 -34
-7 -34 17 0 25 -17 47 -37 47 -7 0 -13 -7 -13 -15 0 -8 -2 -15 -4 -15 -15 0
-125 74 -121 81 3 4 48 31 101 59 52 29 94 56 92 61 -2 6 -17 18 -33 29 l-30
18 -105 -58z"/>
</g>
</svg>
